<?xml version="1.0" encoding="UTF-8" standalone="no"?>
<svg
   width="100"
   height="100"
   viewBox="-50 -60 381.316 511.653"
   version="1.1"
   id="svg22"
   sodipodi:docname="bishop.svg"
   inkscape:version="1.2.2 (b0a8486541, 2022-12-01)"
   xmlns:inkscape="http://www.inkscape.org/namespaces/inkscape"
   xmlns:sodipodi="http://sodipodi.sourceforge.net/DTD/sodipodi-0.dtd"
   xmlns="http://www.w3.org/2000/svg"
   xmlns:svg="http://www.w3.org/2000/svg">
  <sodipodi:namedview
     id="namedview24"
     pagecolor="#505050"
     bordercolor="#ffffff"
     borderopacity="1"
     inkscape:showpageshadow="0"
     inkscape:pageopacity="0"
     inkscape:pagecheckerboard="1"
     inkscape:deskcolor="#505050"
     showgrid="false"
     inkscape:zoom="8.37"
     inkscape:cx="48.74552"
     inkscape:cy="50.059737"
     inkscape:window-width="948"
     inkscape:window-height="995"
     inkscape:window-x="964"
     inkscape:window-y="40"
     inkscape:window-maximized="0"
     inkscape:current-layer="svg22" />
  <defs
     id="defs5">
    <clipPath
       id="clip1">
      <path
         d="M 0 70 L 291.316406 70 L 291.316406 431.652344 L 0 431.652344 Z M 0 70 "
         id="path2" />
    </clipPath>
  </defs>
  <path
     style="fill:#ffbbff;fill-opacity:1;fill-rule:nonzero;stroke:none"
     d="m 180.35937,29.832031 c 0,19.238281 -15.59375,34.832031 -34.83203,34.832031 -19.23828,0 -34.83203,-15.59375 -34.83203,-34.832031 C 110.69531,10.59375 126.28906,-5 145.52734,-5 c 19.23828,0 34.83203,15.59375 34.83203,34.832031"
     id="path7" />
  <path
     style="fill:none;stroke:#000000;stroke-width:30;stroke-linecap:butt;stroke-linejoin:round;stroke-miterlimit:10;stroke-opacity:1"
     d="m 180.35937,29.832031 c 0,19.238281 -15.59375,34.832031 -34.83203,34.832031 -19.23828,0 -34.83203,-15.59375 -34.83203,-34.832031 C 110.69531,10.59375 126.28906,-5 145.52734,-5 c 19.23828,0 34.83203,15.59375 34.83203,34.832031 z m 0,0"
     id="path9" />
  <path
     style="fill:#ffffff;fill-opacity:1;fill-rule:nonzero;stroke:none"
     d="m 248.14844,149.85937 c -56.52735,15.36329 -94.26563,111.42579 -94.26563,111.42579 0,0 4.67578,-86.51954 44.84766,-160.10157 -27.89453,-22.265621 -52.6211,-36.042965 -52.6211,-36.042965 0,0 -132.011714,72.128905 -131.105464,154.695315 0.910156,82.5664 66.234375,146.98437 58.070313,164.22656 -8.167969,17.23828 154.242191,16.33203 146.074221,0 -8.16407,-16.33203 56.2539,-82.56641 57.16406,-164.22656 0.27344,-24.71094 -11.55078,-48.62891 -28.16406,-69.97657"
     id="path11" />
  <path
     style="fill:#ffbbff;fill-opacity:1;fill-rule:nonzero;stroke:none"
     d="M 150.31641,71.773438 C 99.816406,158.77344 87.816406,197.77344 87.816406,224.77344 c 0,56.92187 51.000004,148 26.500004,162 H 78.316406 l -45,-90 -18,-63 9,-54 36,-45 z m 0,0"
     id="path13" />
  <g
     clip-path="url(#clip1)"
     clip-rule="nonzero"
     id="g17"
     transform="translate(0,-20)">
    <path
       style="fill:#000000;fill-opacity:1;fill-rule:nonzero;stroke:none"
       d="m 88.683594,397.54687 c 9.394531,2.0625 28.707036,4.10547 55.781246,4.10547 0.57422,0 1.14844,0 1.72657,0 27.86328,-0.0898 47.76562,-2.2539 57.40625,-4.375 1.28125,-10.32812 8.08984,-22.59765 17.41796,-39.40234 16.78516,-30.25 39.78125,-71.67969 40.29688,-118.20703 0.17969,-16.07031 -6.0625,-33.45313 -18.56641,-51.78516 -36.14843,17.58594 -65.89843,76.05469 -74.90625,98.89844 -2.69922,6.84375 -9.97265,10.73047 -17.15234,9.15625 -7.19141,-1.57031 -12.17969,-8.11328 -11.78516,-15.46094 0.1875,-3.48828 4.83985,-82.3125 40.75,-155.08984 -13.92187,-10.44531 -26.23047,-18.34375 -33.60547,-22.85938 -11.27343,6.78907 -34.03124,21.33594 -56.42187,40.69141 -27.421875,23.71094 -60.027344,59.69141 -59.621094,96.45312 0.515625,46.94141 23.78125,87.90235 40.769532,117.8125 9.722656,17.11719 16.753906,29.4961 17.910156,40.0625 m 55.890626,34.10547 c -16.4336,0 -32.31641,-0.75 -44.925782,-2.1289 C 77.027344,427.05078 69.535156,423.24609 65.195312,419.84766 58.785156,414.83203 56.3125,407.03125 58.640625,399.83984 57.511719,394.87891 50.4375,382.42578 44.6875,372.30078 27.132812,341.39453 0.605469,294.69141 0.00390625,240 -0.421875,201.13281 23.269531,160.81641 70.421875,120.16406 104.13281,91.105469 137.51562,72.742188 138.91797,71.976562 c 4.51953,-2.472656 9.99609,-2.449218 14.49609,0.05859 1.05078,0.589844 26.13281,14.644532 54.67578,37.425788 5.69141,4.54297 7.29688,12.51953 3.80469,18.91406 -12.90234,23.63281 -22.00391,48.86328 -28.39453,71.89844 19.26953,-24.09375 39.61719,-39.15625 60.71484,-44.89063 5.83203,-1.58594 12.05469,0.48828 15.77344,5.26563 21.06641,27.07031 31.60547,53.76953 31.32031,79.35547 -0.60156,54.11328 -26.7539,101.24218 -44.0625,132.42968 -5.58593,10.06641 -12.45312,22.4336 -13.65234,27.42578 2.25391,6.9336 -0.0234,14.47657 -6.08984,19.4375 -4.19141,3.42188 -11.50782,7.27735 -34.03907,9.89454 -13.08984,1.51562 -29.71093,2.39062 -46.80468,2.45703 -0.69532,0.004 -1.39063,0.004 -2.08594,0.004"
       id="path15" />
  </g>
  <path
     style="fill:none;stroke:#000000;stroke-width:30;stroke-linecap:round;stroke-linejoin:round;stroke-miterlimit:10;stroke-opacity:1"
     d="m 47.316406,324.27344 c 15.582032,24.33593 181.500004,28.83984 198.000004,0"
     id="path19" />
</svg>
