<?xml version="1.0" encoding="UTF-8" standalone="no"?>
<svg
   width="100"
   height="100"
   viewBox="-50 -100 386.833 503"
   version="1.1"
   id="svg24"
   sodipodi:docname="captain.svg"
   inkscape:version="1.2.2 (b0a8486541, 2022-12-01)"
   xmlns:inkscape="http://www.inkscape.org/namespaces/inkscape"
   xmlns:sodipodi="http://sodipodi.sourceforge.net/DTD/sodipodi-0.dtd"
   xmlns="http://www.w3.org/2000/svg"
   xmlns:svg="http://www.w3.org/2000/svg">
  <sodipodi:namedview
     id="namedview26"
     pagecolor="#505050"
     bordercolor="#ffffff"
     borderopacity="1"
     inkscape:showpageshadow="0"
     inkscape:pageopacity="0"
     inkscape:pagecheckerboard="1"
     inkscape:deskcolor="#505050"
     showgrid="false"
     inkscape:zoom="23.014877"
     inkscape:cx="37.323685"
     inkscape:cy="46.665468"
     inkscape:window-width="1920"
     inkscape:window-height="1011"
     inkscape:window-x="0"
     inkscape:window-y="32"
     inkscape:window-maximized="1"
     inkscape:current-layer="svg24" />
  <defs
     id="defs5">
    <clipPath
       id="clip1">
      <path
         d="M 0 0 L 296.832031 0 L 296.832031 373 L 0 373 Z M 0 0 "
         id="path2" />
    </clipPath>
    <clipPath
       id="clip1-3">
      <path
         d="M 0,0 H 296.83203 V 373 H 0 Z m 0,0"
         id="path2-6" />
    </clipPath>
  </defs>
  <g
     inkscape:groupmode="layer"
     id="layer1"
     inkscape:label="old"
     style="display:inline" />
  <g
     id="g2953"
     style="display:inline;stroke-width:1.12206"
     transform="matrix(0.89053479,0,0,0.89190495,-0.6902011,35.332943)">
    <path
       style="fill:#4c4c4c;fill-opacity:1;stroke:none;stroke-width:36.4769;stroke-linecap:round;stroke-linejoin:round;stroke-opacity:1"
       d="M 12.225145,-47.978536 103.92326,10.774743 265.9811,208.01276 339.30471,293.09061 299.1176,327.72554 226.18731,242.3087 209.54567,255.93156 156.59432,196.34529 54.833616,133.95004 0.5335231,59.117969 0.37519127,-53.726867 Z"
       id="path2070" />
    <path
       style="fill:#7f7f7f;fill-opacity:1;stroke:none;stroke-width:36.4769;stroke-linecap:round;stroke-linejoin:round;stroke-opacity:1"
       d="m 14.549292,-29.622695 c 0,0 18.489465,66.921599 49.014645,108.333823 30.52518,41.412222 97.150503,81.045712 122.101483,107.387472 24.95097,26.34175 44.61687,53.16441 44.61687,53.16441 L 209.54567,255.93156 156.59432,196.34529 43.842947,126.12798 -1.7005291,46.900944 -1.5710217,-39.74818 Z"
       id="path2831"
       sodipodi:nodetypes="czzccccccc" />
    <path
       style="fill:none;stroke:#000000;stroke-width:36.4769;stroke-linecap:round;stroke-linejoin:round;stroke-opacity:1"
       d="m 0.37519127,-53.726867 c 0,0 76.55945973,35.602389 103.54806873,64.501611 36.81324,39.41934 69.71461,87.528253 83.07946,104.747446 36.23494,46.68485 78.63318,92.54341 78.63318,92.54341 l -56.09023,47.86596 c 0,0 -19.51825,-38.56755 -69.60718,-71.57397 C 85.516746,148.49603 29.92851,131.28368 8.6205892,84.267187 -14.677141,32.860141 0.37519127,-53.726867 0.37519127,-53.726867 Z"
       id="path571"
       sodipodi:nodetypes="cssccssc" />
    <path
       style="fill:none;stroke:#000000;stroke-width:36.4769;stroke-linecap:round;stroke-linejoin:round;stroke-opacity:1"
       d="m 225.79398,242.6477 c 31.89833,22.45255 54.72675,52.08931 73.32362,85.07784 l 40.18711,-34.63493 -73.32362,-85.07785 -79.58755,68.59187"
       id="path1609"
       sodipodi:nodetypes="ccccc" />
    <path
       style="fill:none;stroke:#000000;stroke-width:36.4769;stroke-linecap:round;stroke-linejoin:round;stroke-opacity:1"
       d="m 339.30471,293.09061 -63.5422,54.76331"
       id="path1778"
       sodipodi:nodetypes="cc" />
  </g>
</svg>
