<?xml version="1.0" encoding="UTF-8" standalone="no"?>
<svg
   width="100"
   height="100"
   viewBox="-50 -60 478.766 521.579"
   version="1.1"
   id="svg86"
   sodipodi:docname="general.svg"
   inkscape:version="1.2.2 (b0a8486541, 2022-12-01)"
   xmlns:inkscape="http://www.inkscape.org/namespaces/inkscape"
   xmlns:sodipodi="http://sodipodi.sourceforge.net/DTD/sodipodi-0.dtd"
   xmlns="http://www.w3.org/2000/svg"
   xmlns:svg="http://www.w3.org/2000/svg">
  <sodipodi:namedview
     id="namedview88"
     pagecolor="#505050"
     bordercolor="#ffffff"
     borderopacity="1"
     inkscape:showpageshadow="0"
     inkscape:pageopacity="0"
     inkscape:pagecheckerboard="1"
     inkscape:deskcolor="#505050"
     showgrid="false"
     inkscape:zoom="4.5907401"
     inkscape:cx="11.436065"
     inkscape:cy="58.596217"
     inkscape:window-width="1904"
     inkscape:window-height="995"
     inkscape:window-x="8"
     inkscape:window-y="40"
     inkscape:window-maximized="0"
     inkscape:current-layer="layer1" />
  <defs
     id="defs17">
    <clipPath
       id="clip1">
      <path
         d="M 44 356 L 345 356 L 345 431.578125 L 44 431.578125 Z M 44 356 "
         id="path2" />
    </clipPath>
    <clipPath
       id="clip2">
      <path
         d="M 241 127 L 388.765625 127 L 388.765625 322 L 241 322 Z M 241 127 "
         id="path5" />
    </clipPath>
    <clipPath
       id="clip3">
      <path
         d="M 0 0 L 388.765625 0 L 388.765625 431.578125 L 0 431.578125 Z M 0 0 "
         id="path8" />
    </clipPath>
    <clipPath
       id="clip4">
      <path
         d="M 0 0 L 388.765625 0 L 388.765625 431.578125 L 0 431.578125 Z M 0 0 "
         id="path11" />
    </clipPath>
    <clipPath
       id="clip5">
      <path
         d="M 0 0 L 388.765625 0 L 388.765625 431.578125 L 0 431.578125 Z M 0 0 "
         id="path14" />
    </clipPath>
    <clipPath
       id="clip1-3">
      <path
         d="m 44,356 h 301 v 75.57812 H 44 Z m 0,0"
         id="path2-6" />
    </clipPath>
    <clipPath
       id="clip2-7">
      <path
         d="M 241,127 H 388.76562 V 322 H 241 Z m 0,0"
         id="path5-5" />
    </clipPath>
    <clipPath
       id="clip3-3">
      <path
         d="M 0,0 H 388.76562 V 431.57812 H 0 Z m 0,0"
         id="path8-5" />
    </clipPath>
    <clipPath
       id="clip4-6">
      <path
         d="M 0,0 H 388.76562 V 431.57812 H 0 Z m 0,0"
         id="path11-2" />
    </clipPath>
    <clipPath
       id="clip5-9">
      <path
         d="M 0,0 H 388.76562 V 431.57812 H 0 Z m 0,0"
         id="path14-1" />
    </clipPath>
  </defs>
  <g
     inkscape:groupmode="layer"
     id="layer1"
     inkscape:label="old"
     style="display:inline" />
  <g
     id="g5314"
     transform="matrix(1.1107568,0,0,1.1099754,5.1474533,-21.276623)"
     style="stroke-width:0.900604">
    <path
       style="fill:#4c4c4c;fill-opacity:1;stroke:none;stroke-width:30.359;stroke-linecap:round;stroke-linejoin:round;stroke-dasharray:none;stroke-opacity:1"
       d="M 279.93303,27.155846 123.38934,65.110065 13.67705,144.10071 l 23.159855,47.22884 105.028165,-15.96413 55.76315,36.89313 21.96238,-4.0742 z"
       id="path5026" />
    <path
       style="fill:none;stroke:#000000;stroke-width:30.359;stroke-linecap:round;stroke-linejoin:round;stroke-opacity:1"
       d="M 327.05506,185.00307 172.70017,216.57592"
       id="path836-4"
       sodipodi:nodetypes="cc" />
    <path
       style="fill:#7f7f7f;fill-opacity:1;stroke:none;stroke-width:30.359;stroke-linecap:round;stroke-linejoin:round;stroke-dasharray:none;stroke-opacity:1"
       d="m 201.83992,43.34559 -88.3235,26.454993 -99.83937,74.300127 23.159855,47.22884 94.527335,-63.33479 38.05114,-17.27036 c 4.87168,-24.697216 15.52335,-47.215814 32.42454,-67.37881 z"
       id="path4096"
       sodipodi:nodetypes="ccccccc" />
    <path
       style="fill:#7f7f7f;fill-opacity:1;stroke:none;stroke-width:30.359;stroke-linecap:round;stroke-linejoin:round;stroke-dasharray:none;stroke-opacity:1"
       d="m 153.63075,122.62321 -57.36454,45.52506 45.59886,7.21715 c -4.06726,-17.40652 3.599,-37.29822 11.76568,-52.74221 z"
       id="path4616"
       sodipodi:nodetypes="cccc" />
    <path
       style="fill:none;fill-opacity:1;stroke:#000000;stroke-width:30.359;stroke-linecap:round;stroke-linejoin:round;stroke-dasharray:none;stroke-opacity:1"
       d="m 36.836907,191.32955 c 0,0 75.998983,-57.02703 116.606743,-74.58132 40.60777,-17.554289 105.76978,-24.684966 105.76978,-24.684966"
       id="path3994"
       sodipodi:nodetypes="czc" />
    <path
       style="fill:none;fill-opacity:1;stroke:#000000;stroke-width:30.359;stroke-linecap:round;stroke-linejoin:round;stroke-opacity:1"
       d="M 279.93303,27.155848 207.74868,253.28475 53.393802,284.8576 13.677051,144.10071 C 82.840735,79.069568 133.05605,44.584738 279.93303,27.155848 Z"
       id="path836"
       sodipodi:nodetypes="ccccc" />
    <g
       id="g3632"
       transform="translate(31.642525,-21.936673)"
       style="stroke-width:0.900604">
      <ellipse
         style="fill:#4c4c4c;fill-opacity:1;stroke:#000000;stroke-width:30.359;stroke-linecap:round;stroke-linejoin:round;stroke-opacity:1"
         id="path2287"
         cx="-171.46309"
         cy="247.35226"
         rx="94.901817"
         ry="96.696884"
         transform="rotate(-50)" />
      <path
         style="fill:none;stroke:#000000;stroke-width:30.359;stroke-linecap:round;stroke-linejoin:round;stroke-dasharray:none;stroke-opacity:1"
         d="M 5.1943823,228.18775 153.3426,352.49886"
         id="path2901" />
      <path
         style="fill:none;stroke:#000000;stroke-width:30.359;stroke-linecap:round;stroke-linejoin:round;stroke-dasharray:none;stroke-opacity:1"
         d="M 18.266772,363.04232 140.2702,217.6443"
         id="path2903" />
      <ellipse
         style="fill:#4c4c4c;fill-opacity:1;stroke:#000000;stroke-width:30.359;stroke-linecap:round;stroke-linejoin:round;stroke-opacity:1"
         id="path2287-8"
         cx="-171.46309"
         cy="247.35226"
         rx="39.02351"
         ry="39.921043"
         transform="rotate(-50)" />
    </g>
  </g>
</svg>
