<?xml version="1.0" encoding="UTF-8" standalone="no"?>
<svg
   width="100"
   height="100"
   viewBox="-50 -60 478.766 521.579"
   version="1.1"
   id="svg86"
   sodipodi:docname="general.svg"
   inkscape:version="1.2.2 (b0a8486541, 2022-12-01)"
   xmlns:inkscape="http://www.inkscape.org/namespaces/inkscape"
   xmlns:sodipodi="http://sodipodi.sourceforge.net/DTD/sodipodi-0.dtd"
   xmlns="http://www.w3.org/2000/svg"
   xmlns:svg="http://www.w3.org/2000/svg">
  <sodipodi:namedview
     id="namedview88"
     pagecolor="#505050"
     bordercolor="#ffffff"
     borderopacity="1"
     inkscape:showpageshadow="0"
     inkscape:pageopacity="0"
     inkscape:pagecheckerboard="1"
     inkscape:deskcolor="#505050"
     showgrid="false"
     inkscape:zoom="9.5889177"
     inkscape:cx="30.138959"
     inkscape:cy="50.057787"
     inkscape:window-width="1920"
     inkscape:window-height="1011"
     inkscape:window-x="0"
     inkscape:window-y="32"
     inkscape:window-maximized="1"
     inkscape:current-layer="svg86" />
  <defs
     id="defs17">
    <clipPath
       id="clip1">
      <path
         d="M 44 356 L 345 356 L 345 431.578125 L 44 431.578125 Z M 44 356 "
         id="path2" />
    </clipPath>
    <clipPath
       id="clip2">
      <path
         d="M 241 127 L 388.765625 127 L 388.765625 322 L 241 322 Z M 241 127 "
         id="path5" />
    </clipPath>
    <clipPath
       id="clip3">
      <path
         d="M 0 0 L 388.765625 0 L 388.765625 431.578125 L 0 431.578125 Z M 0 0 "
         id="path8" />
    </clipPath>
    <clipPath
       id="clip4">
      <path
         d="M 0 0 L 388.765625 0 L 388.765625 431.578125 L 0 431.578125 Z M 0 0 "
         id="path11" />
    </clipPath>
    <clipPath
       id="clip5">
      <path
         d="M 0 0 L 388.765625 0 L 388.765625 431.578125 L 0 431.578125 Z M 0 0 "
         id="path14" />
    </clipPath>
    <clipPath
       id="clip1-3">
      <path
         d="m 44,356 h 301 v 75.57812 H 44 Z m 0,0"
         id="path2-6" />
    </clipPath>
    <clipPath
       id="clip2-7">
      <path
         d="M 241,127 H 388.76562 V 322 H 241 Z m 0,0"
         id="path5-5" />
    </clipPath>
    <clipPath
       id="clip3-3">
      <path
         d="M 0,0 H 388.76562 V 431.57812 H 0 Z m 0,0"
         id="path8-5" />
    </clipPath>
    <clipPath
       id="clip4-6">
      <path
         d="M 0,0 H 388.76562 V 431.57812 H 0 Z m 0,0"
         id="path11-2" />
    </clipPath>
    <clipPath
       id="clip5-9">
      <path
         d="M 0,0 H 388.76562 V 431.57812 H 0 Z m 0,0"
         id="path14-1" />
    </clipPath>
  </defs>
  <g
     inkscape:groupmode="layer"
     id="layer1"
     inkscape:label="old"
     style="display:inline" />
  <path
     style="fill:#4c4c4c;fill-opacity:1;stroke:none;stroke-width:33.7096;stroke-linecap:round;stroke-linejoin:round;stroke-dasharray:none;stroke-opacity:1"
     d="M 316.08497,8.865698 142.203,50.993947 20.33933,138.67162 l 25.724966,52.42285 116.660744,-17.71979 61.9393,40.95047 24.39487,-4.52227 z"
     id="path5026" />
  <path
     style="fill:none;stroke:#000000;stroke-width:33.7096;stroke-linecap:round;stroke-linejoin:round;stroke-opacity:1"
     d="M 368.42609,184.07223 196.97534,219.11732"
     id="path836-4"
     sodipodi:nodetypes="cc" />
  <path
     style="fill:#b75fbf;fill-opacity:1;stroke:none;stroke-width:33.7096;stroke-linecap:round;stroke-linejoin:round;stroke-dasharray:none;stroke-opacity:1"
     d="M 229.34252,26.835916 131.23659,56.200307 20.33933,138.67162 46.064296,191.09447 151.06118,120.79441 193.32674,101.62474 c 5.41125,-27.413305 17.24267,-52.408395 36.01578,-74.788824 z"
     id="path4096"
     sodipodi:nodetypes="ccccccc" />
  <path
     style="fill:#b75fbf;fill-opacity:1;stroke:none;stroke-width:33.7096;stroke-linecap:round;stroke-linejoin:round;stroke-dasharray:none;stroke-opacity:1"
     d="m 175.79385,114.83212 -63.71805,50.5317 50.64924,8.01086 c -4.51773,-19.32081 3.99762,-41.40011 13.06881,-58.54256 z"
     id="path4616"
     sodipodi:nodetypes="cccc" />
  <path
     style="fill:none;fill-opacity:1;stroke:#000000;stroke-width:33.7096;stroke-linecap:round;stroke-linejoin:round;stroke-dasharray:none;stroke-opacity:1"
     d="m 46.064298,191.09447 c 0,0 84.416392,-63.2986 129.521732,-82.78343 45.10536,-19.484829 117.4845,-27.399705 117.4845,-27.399705"
     id="path3994"
     sodipodi:nodetypes="czc" />
  <path
     style="fill:none;fill-opacity:1;stroke:#000000;stroke-width:33.7096;stroke-linecap:round;stroke-linejoin:round;stroke-opacity:1"
     d="M 316.08497,8.8657002 235.90571,259.86322 64.454982,294.90831 20.339331,138.67162 C 97.163363,66.488652 152.94037,28.211339 316.08497,8.8657002 Z"
     id="path836"
     sodipodi:nodetypes="ccccc" />
  <g
     id="g3632"
     transform="matrix(1.1107568,0,0,1.1099754,40.294603,-45.62579)"
     style="stroke-width:0.900604">
    <ellipse
       style="fill:#4c4c4c;fill-opacity:1;stroke:#000000;stroke-width:30.359;stroke-linecap:round;stroke-linejoin:round;stroke-opacity:1"
       id="path2287"
       cx="-171.46309"
       cy="247.35226"
       rx="94.901817"
       ry="96.696884"
       transform="rotate(-50)" />
    <path
       style="fill:none;stroke:#000000;stroke-width:30.359;stroke-linecap:round;stroke-linejoin:round;stroke-dasharray:none;stroke-opacity:1"
       d="M 5.1943823,228.18775 153.3426,352.49886"
       id="path2901" />
    <path
       style="fill:none;stroke:#000000;stroke-width:30.359;stroke-linecap:round;stroke-linejoin:round;stroke-dasharray:none;stroke-opacity:1"
       d="M 18.266772,363.04232 140.2702,217.6443"
       id="path2903" />
    <ellipse
       style="fill:#4c4c4c;fill-opacity:1;stroke:#000000;stroke-width:30.359;stroke-linecap:round;stroke-linejoin:round;stroke-opacity:1"
       id="path2287-8"
       cx="-171.46309"
       cy="247.35226"
       rx="39.02351"
       ry="39.921043"
       transform="rotate(-50)" />
  </g>
</svg>
