<?xml version="1.0" encoding="UTF-8" standalone="no"?>
<svg
   width="100"
   height="100"
   viewBox="-50 -92.5 398.041 510.02"
   version="1.1"
   id="svg22"
   sodipodi:docname="knight.svg"
   inkscape:version="1.2.2 (b0a8486541, 2022-12-01)"
   xmlns:inkscape="http://www.inkscape.org/namespaces/inkscape"
   xmlns:sodipodi="http://sodipodi.sourceforge.net/DTD/sodipodi-0.dtd"
   xmlns="http://www.w3.org/2000/svg"
   xmlns:svg="http://www.w3.org/2000/svg">
  <sodipodi:namedview
     id="namedview24"
     pagecolor="#505050"
     bordercolor="#ffffff"
     borderopacity="1"
     inkscape:showpageshadow="0"
     inkscape:pageopacity="0"
     inkscape:pagecheckerboard="1"
     inkscape:deskcolor="#505050"
     showgrid="false"
     inkscape:zoom="8.37"
     inkscape:cx="47.311828"
     inkscape:cy="50.059737"
     inkscape:window-width="1920"
     inkscape:window-height="1011"
     inkscape:window-x="0"
     inkscape:window-y="32"
     inkscape:window-maximized="1"
     inkscape:current-layer="svg22" />
  <defs
     id="defs5">
    <clipPath
       id="clip1">
      <path
         d="M 0 0 L 308.039062 0 L 308.039062 395.019531 L 0 395.019531 Z M 0 0 "
         id="path2" />
    </clipPath>
  </defs>
  <path
     style="fill:#ffffff;fill-opacity:1;fill-rule:nonzero;stroke:none"
     d="m 39.136719,343.30859 c 27.300781,8.16407 66.953121,16.75391 115.164061,16.26563 44.40625,-0.45313 81.16797,-8.45703 107.27344,-16.26563 -0.46094,-1.67578 -1.16797,-4.51953 -1.96094,-8.05468 -2.99609,-13.32032 -7.41406,-41.41797 1.96094,-71.07422 C 274.42969,223.51562 307.5,172.91797 285.09375,98.23047 261.35547,19.101562 150.6875,-4.574219 150.6875,-4.574219 l 1.80469,37.046875 -129.27344,93.710934 c -8.203125,5.94532 -10.195312,17.28516 -4.605469,25.73047 2.652344,4.00781 5.398438,8.53906 7.722657,13.19141 2.28125,4.55859 13.035156,21.08984 19.710937,25.39062 5.414063,3.49219 12.390625,3.27735 17.628906,-0.47265 7.957031,-5.69532 17.949219,-18.3711 45.960939,-15.66016 74.09375,12.64844 92.55469,-27.76562 92.55469,-27.76562 0,0 -11.7461,24.125 -59.52735,46.58593 -49.808591,19.10547 -82.339841,51.63282 -98.886716,106.6875 -7.894532,26.25782 -4.640625,43.4375 -4.640625,43.4375"
     id="path7" />
  <path
     style="fill:#ffbbff;fill-opacity:1;fill-rule:nonzero;stroke:none"
     d="M 27.363281,159.96484 183.45312,74.410156 c 0,0 18.51172,-9.253906 9.25391,-27.765625 C 188.57031,38.367188 156.94141,2.621094 156.94141,2.621094 V 39.644531 L 18.109375,141.45312 Z m 0,0"
     id="path9" />
  <path
     style="fill:#ffbbff;fill-opacity:1;fill-rule:nonzero;stroke:none"
     d="m 215.55859,153.79687 c -31.8789,53.47266 -70.10156,81.40235 -91.69921,106.08204 -18.03125,20.60937 -31.027349,69.43359 -30.000005,90 0.621094,12.36718 -51.070313,-9.94532 -51.070313,-9.94532 l 13.371094,-63.76172 27.765625,-52.44531 45.249999,-32.91015 z m 0,0"
     id="path11" />
  <g
     clip-path="url(#clip1)"
     clip-rule="nonzero"
     id="g15"
     transform="translate(0,-20)">
    <path
       style="fill:#000000;fill-opacity:1;fill-rule:nonzero;stroke:none"
       d="m 53.941406,351.47266 c 32.699219,8.75781 66.343754,13.03515 100.203124,12.67578 30.08203,-0.30469 60,-4.25782 89.13672,-11.75782 -3.52344,-18.96484 -5.11328,-45.34375 3.58594,-72.85937 2.73828,-8.66406 6.22265,-17.45703 9.91406,-26.76563 14.02344,-35.39062 29.91797,-75.5 13.53906,-130.10156 C 255.23047,72.367188 197.87109,46.65625 167.14844,36.246094 l 0.7539,15.472656 c 0.25391,5.207031 -2.13672,10.1875 -6.35547,13.242188 L 32.269531,158.67187 c -1.484375,1.07813 -1.835937,3.15625 -0.792969,4.72657 3.402344,5.13672 6.3125,10.12109 8.65625,14.8125 2.078126,4.15625 10.75,16.67578 14.296876,19.33593 0.08203,0.0312 0.195312,-0.0156 0.269531,-0.0664 0.796875,-0.57422 1.820312,-1.40625 3,-2.3711 8.144531,-6.64453 23.296875,-19.01171 53.421871,-16.10156 0.3711,0.0352 0.74219,0.0859 1.10938,0.14844 45.76172,7.8125 65.5625,-6.71094 72.6914,-14.64063 2.48829,-3.04687 3.4961,-4.87109 3.53125,-4.93359 -0.0937,0.17188 -0.13281,0.26172 -0.13281,0.26172 l 6.84375,-0.73828 c 9.44531,-1.02344 18.28516,4.8125 21.0586,13.89844 -0.0312,0.0664 -0.0859,0.18359 -0.16407,0.34375 -0.0859,0.17968 -0.21875,0.4414 -0.40234,0.78515 -0.53906,1.01953 -1.46484,2.63281 -2.85156,4.63281 -6.5625,9.59766 -24.01953,29.78125 -63.57813,48.37891 -0.33984,0.16016 -0.6875,0.30859 -1.03906,0.44141 -47.34375,18.15625 -74.988281,47.98828 -89.640625,96.72656 -3.429687,11.42187 -4.433594,20.80078 -4.605469,27.16016 m 96.406254,43.54687 c -39.15625,0 -78.031254,-5.69141 -115.62891,-16.92969 -5.523438,-1.65234 -9.667969,-6.24609 -10.738281,-11.91015 -0.40625,-2.13672 -3.703125,-21.72266 5.023437,-50.7461 14.648438,-48.72265 41.253906,-82.67968 82.824224,-105.10547 -1.38672,-0.20312 -2.78125,-0.42187 -4.19922,-0.66015 -17.093754,-1.53516 -23.871098,3.99609 -30.421879,9.34375 -1.453125,1.1875 -2.960937,2.41406 -4.550781,3.55469 -10.464844,7.49218 -24.195312,7.84375 -34.96875,0.89453 C 26.375,216.16797 14.011719,194.95312 12.539062,192.00391 10.75,188.42578 8.464844,184.53125 5.75,180.42969 -4.441406,165.03516 -0.746094,144.50391 14.164062,133.69531 L 136.67969,44.882812 135.27734,16.175781 c -0.23047,-4.785156 1.76953,-9.40625 5.41797,-12.503906 3.65235,-3.105469 8.53906,-4.332031 13.21875,-3.332031 4.88281,1.042968 119.89453,26.585937 145.95703,113.457036 19.45703,64.86718 -0.11718,114.26562 -14.41015,150.33203 -3.48047,8.78515 -6.76953,17.08203 -9.17578,24.70312 -8.02735,25.39063 -4.46485,50.39844 -1.6211,63.04297 0.96094,4.28906 1.60938,6.69922 1.78516,7.33594 2.22656,8.08984 -2.41406,16.47656 -10.45313,18.8789 -36.24218,10.83594 -73.76953,16.52735 -111.53906,16.91016 -1.36719,0.0117 -2.74219,0.0195 -4.10937,0.0195"
       id="path13" />
  </g>
  <path
     style="fill:#ffffff;fill-opacity:1;fill-rule:nonzero;stroke:#000000;stroke-width:30;stroke-linecap:round;stroke-linejoin:round;stroke-miterlimit:10;stroke-opacity:1"
     d="m 55.003906,292.07812 c 23.664063,7.10938 58.179684,14.61329 100.167974,14.0586 37.75781,-0.4961 69.04687,-7.34766 91.38281,-14.0586"
     id="path17" />
  <path
     style="fill:#000000;fill-opacity:1;fill-rule:nonzero;stroke:none"
     d="m 169.68359,93.57813 c 0,8.375 -6.78906,15.16406 -15.16406,15.16406 -8.375,0 -15.16406,-6.78906 -15.16406,-15.16406 0,-8.375 6.78906,-15.160161 15.16406,-15.160161 8.375,0 15.16406,6.785161 15.16406,15.160161"
     id="path19" />
</svg>
