<?xml version="1.0" encoding="UTF-8" standalone="no"?>
<svg
   width="100"
   height="100"
   viewBox="-50 -60 381.316 511.653"
   version="1.1"
   id="svg22"
   sodipodi:docname="lieutenant.svg"
   inkscape:version="1.2.2 (b0a8486541, 2022-12-01)"
   xmlns:inkscape="http://www.inkscape.org/namespaces/inkscape"
   xmlns:sodipodi="http://sodipodi.sourceforge.net/DTD/sodipodi-0.dtd"
   xmlns="http://www.w3.org/2000/svg"
   xmlns:svg="http://www.w3.org/2000/svg">
  <sodipodi:namedview
     id="namedview24"
     pagecolor="#505050"
     bordercolor="#ffffff"
     borderopacity="1"
     inkscape:showpageshadow="0"
     inkscape:pageopacity="0"
     inkscape:pagecheckerboard="1"
     inkscape:deskcolor="#505050"
     showgrid="false"
     inkscape:zoom="7.4278044"
     inkscape:cx="12.857097"
     inkscape:cy="47.12025"
     inkscape:window-width="1904"
     inkscape:window-height="995"
     inkscape:window-x="8"
     inkscape:window-y="40"
     inkscape:window-maximized="0"
     inkscape:current-layer="svg22" />
  <defs
     id="defs5">
    <clipPath
       id="clip1">
      <path
         d="M 0 70 L 291.316406 70 L 291.316406 431.652344 L 0 431.652344 Z M 0 70 "
         id="path2" />
    </clipPath>
    <clipPath
       id="clip1-3">
      <path
         d="M 0,70 H 291.31641 V 431.65234 H 0 Z m 0,0"
         id="path2-6" />
    </clipPath>
  </defs>
  <g
     inkscape:groupmode="layer"
     id="layer1"
     inkscape:label="old"
     style="display:inline" />
  <path
     style="fill:#4c4c4c;fill-opacity:1;stroke:none;stroke-width:33.0681;stroke-linecap:round;stroke-linejoin:round;stroke-dasharray:none;stroke-opacity:1"
     d="M 145.65711,2.1854816 53.457411,176.42247 l -10.791459,75.78887 45.780491,65.70707 4.139828,59.53104 52.530889,12.01596 53.61079,-12.01596 4.13982,-57.68319 45.7805,-67.55492 -19.85508,-100.61293 z"
     id="path2013" />
  <path
     style="fill:#7f7f7f;fill-opacity:1;stroke:none;stroke-width:33.0681;stroke-linecap:round;stroke-linejoin:round;stroke-dasharray:none;stroke-opacity:1"
     d="m 53.457411,176.42247 -10.791459,75.78887 c 48.532823,51.37748 45.780491,65.70707 45.780491,65.70707 l 4.139828,59.53104 38.424589,1.85797 c 0,0 1.48638,-59.91033 -12.21455,-81.34413 -9.8274,-22.47304 -22.095298,-24.8128 -23.194326,-50.09006 -3.082983,-70.90757 32.911656,-172.314416 50.055126,-219.552343 0,0 -74.121967,113.938683 -92.199699,148.101583 z"
     id="path2318"
     sodipodi:nodetypes="ccccccscc" />
  <path
     id="path1828-3"
     style="fill:none;stroke:#000000;stroke-width:33.0681;stroke-linecap:round;stroke-linejoin:round;stroke-dasharray:none;stroke-opacity:1"
     d="m 202.86777,319.76626 c 0,0 -33.07101,14.65446 -57.21066,14.58655 -24.13965,0.0679 -57.210667,-14.58655 -57.210667,-14.58655"
     sodipodi:nodetypes="ccc" />
  <path
     id="path1828-3-6-1-8"
     style="fill:none;stroke:#000000;stroke-width:33.0681;stroke-linecap:round;stroke-linejoin:round;stroke-dasharray:none;stroke-opacity:1"
     d="M 145.65711,289.85458 V 99.634169"
     sodipodi:nodetypes="cc" />
  <path
     style="fill:none;stroke:#000000;stroke-width:33.0681;stroke-linecap:round;stroke-linejoin:round;stroke-dasharray:none;stroke-opacity:1"
     d="m 198.72795,377.44945 c 0,0 0.0474,-47.43735 4.13982,-59.53104 8.79021,-25.97645 42.19843,-38.501 45.7805,-65.70707 C 260.42556,162.76185 145.65711,2.1854834 145.65711,2.1854834 c 0,0 -114.768447,160.5763666 -102.991157,250.0258566 3.582062,27.20607 36.990283,39.73062 45.78049,65.70707 4.092436,12.09369 4.139828,59.53104 4.139828,59.53104 0,0 20.140109,11.94808 52.530889,12.01596 32.39078,0.0679 53.61079,-12.01596 53.61079,-12.01596 z"
     id="path1472-0-9"
     sodipodi:nodetypes="csscsscsc" />
</svg>
