<?xml version="1.0" encoding="UTF-8" standalone="no"?>
<svg
   width="100"
   height="100"
   viewBox="-50 -60 478.766 511.579"
   version="1.1"
   id="svg86"
   sodipodi:docname="pking.svg"
   inkscape:version="1.2.2 (b0a8486541, 2022-12-01)"
   xmlns:inkscape="http://www.inkscape.org/namespaces/inkscape"
   xmlns:sodipodi="http://sodipodi.sourceforge.net/DTD/sodipodi-0.dtd"
   xmlns="http://www.w3.org/2000/svg"
   xmlns:svg="http://www.w3.org/2000/svg">
  <sodipodi:namedview
     id="namedview88"
     pagecolor="#505050"
     bordercolor="#ffffff"
     borderopacity="1"
     inkscape:showpageshadow="0"
     inkscape:pageopacity="0"
     inkscape:pagecheckerboard="1"
     inkscape:deskcolor="#505050"
     showgrid="false"
     inkscape:zoom="8.37"
     inkscape:cx="50.059737"
     inkscape:cy="50.059737"
     inkscape:window-width="1920"
     inkscape:window-height="1011"
     inkscape:window-x="0"
     inkscape:window-y="32"
     inkscape:window-maximized="1"
     inkscape:current-layer="svg86" />
  <defs
     id="defs17">
    <clipPath
       id="clip1">
      <path
         d="M 44 356 L 345 356 L 345 431.578125 L 44 431.578125 Z M 44 356 "
         id="path2" />
    </clipPath>
    <clipPath
       id="clip2">
      <path
         d="M 241 127 L 388.765625 127 L 388.765625 322 L 241 322 Z M 241 127 "
         id="path5" />
    </clipPath>
    <clipPath
       id="clip3">
      <path
         d="M 0 0 L 388.765625 0 L 388.765625 431.578125 L 0 431.578125 Z M 0 0 "
         id="path8" />
    </clipPath>
    <clipPath
       id="clip4">
      <path
         d="M 0 0 L 388.765625 0 L 388.765625 431.578125 L 0 431.578125 Z M 0 0 "
         id="path11" />
    </clipPath>
    <clipPath
       id="clip5">
      <path
         d="M 0 0 L 388.765625 0 L 388.765625 431.578125 L 0 431.578125 Z M 0 0 "
         id="path14" />
    </clipPath>
  </defs>
  <path
     style="fill:#ffffff;fill-opacity:1;fill-rule:nonzero;stroke:none"
     d="M 319.38281,396.57812 H 69.382812 c -5.523437,0 -10,-4.47656 -10,-10 v -25 c 0,-5.51953 4.476563,-10 10,-10 H 319.38281 c 5.52344,0 10,4.48047 10,10 v 25 c 0,5.52344 -4.47656,10 -10,10"
     id="path19" />
  <path
     style="fill:#ffbbff;fill-opacity:1;fill-rule:nonzero;stroke:none;stroke-width:0.99757905;stroke-dasharray:none"
     d="m 95.382812,393.57812 h -36 v -45 h 36 z m 0,0"
     id="path21" />
  <g
     clip-path="url(#clip1)"
     clip-rule="nonzero"
     id="g25"
     transform="translate(0,-20)">
    <path
       style="fill:#000000;fill-opacity:1;fill-rule:nonzero;stroke:none"
       d="M 74.382812,401.57812 H 314.38281 v -15 H 74.382812 Z m 244.999998,30 H 69.382812 c -13.785156,0 -25,-11.21484 -25,-25 v -25 c 0,-13.78515 11.214844,-25 25,-25 H 319.38281 c 13.78516,0 25,11.21485 25,25 v 25 c 0,13.78516 -11.21484,25 -25,25"
       id="path23" />
  </g>
  <path
     style="fill:#ffffff;fill-opacity:1;fill-rule:nonzero;stroke:none"
     d="M 328.38281,351.57812 H 60.382812 c -5.523437,0 -10,-4.47656 -10,-10 v -46 c 0,-5.51953 4.476563,-10 10,-10 H 328.38281 c 5.52344,0 10,4.48047 10,10 v 46 c 0,5.52344 -4.47656,10 -10,10"
     id="path27" />
  <path
     style="fill:#ffbbff;fill-opacity:1;fill-rule:nonzero;stroke:none;stroke-width:0.99757905;stroke-dasharray:none"
     d="m 88.382812,339.57812 h -35 v -45 h 35 z m 0,0"
     id="path29" />
  <path
     style="fill:#000000;fill-opacity:1;fill-rule:nonzero;stroke:none"
     d="M 65.382812,336.57812 H 323.38281 v -36 H 65.382812 Z m 262.999998,30 H 60.382812 c -13.785156,0 -25,-11.21484 -25,-25 v -46 c 0,-13.78515 11.214844,-25 25,-25 H 328.38281 c 13.78516,0 25,11.21485 25,25 v 46 c 0,13.78516 -11.21484,25 -25,25"
     id="path31" />
  <path
     style="fill:none;stroke:#000000;stroke-width:30;stroke-linecap:round;stroke-linejoin:miter;stroke-miterlimit:10;stroke-opacity:1"
     d="M 194.38281,118.17188 V -5"
     id="path33" />
  <path
     style="fill:none;stroke:#000000;stroke-width:30;stroke-linecap:round;stroke-linejoin:miter;stroke-miterlimit:10;stroke-opacity:1"
     d="m 158.38281,31 h 72"
     id="path35" />
  <path
     style="fill:#ffffff;fill-opacity:1;fill-rule:nonzero;stroke:none"
     d="m 207.375,77.875 h -24.15234 c -5.16797,0 -9.83594,3.07031 -11.88672,7.80859 l -14.98438,34.625 c -1.41797,3.28125 -1.41797,7.00391 0,10.28516 l 14.98438,34.625 c 2.05078,4.73828 6.71875,7.80469 11.88672,7.80469 H 207.375 c 5.16406,0 9.83594,-3.06641 11.88672,-7.80469 l 14.98047,-34.625 c 1.41797,-3.28125 1.41797,-7.00391 0,-10.28516 l -14.98047,-34.625 C 217.21094,80.94531 212.53906,77.875 207.375,77.875"
     id="path37" />
  <path
     style="fill:#000000;fill-opacity:1;fill-rule:nonzero;stroke:none"
     d="m 184.56641,158.02344 h 21.46484 L 220.125,125.44922 206.03125,92.875 h -21.46484 l -14.09766,32.57422 z m 22.80859,30 h -24.15625 c -11.15234,0 -21.22266,-6.61328 -25.65234,-16.85157 l -14.98047,-34.62109 c -3.05078,-7.05078 -3.05078,-15.14453 0,-22.19922 L 157.56641,79.726562 C 161.99609,69.492188 172.06641,62.875 183.21875,62.875 H 207.375 c 11.15625,0 21.22266,6.617188 25.65234,16.851562 l 14.98047,34.624998 c 3.05078,7.05469 3.05078,15.14844 0,22.19922 l -14.98047,34.62109 c -4.42968,10.23829 -14.49609,16.85157 -25.65234,16.85157"
     id="path39" />
  <path
     style="fill:#ffffff;fill-opacity:1;fill-rule:nonzero;stroke:none"
     d="m 315.14844,121.59375 c 32.375,0 58.61718,24.11328 58.61718,53.85547 0,62.83203 -48.84765,98.73437 -58.61718,107.71094 -9.76953,8.97656 -58.6211,0 -58.6211,0 V 175.44922 c 0,-29.74219 26.2461,-53.85547 58.6211,-53.85547"
     id="path41" />
  <path
     style="fill:#ffbbff;fill-opacity:1;fill-rule:nonzero;stroke:none;stroke-width:0.99757905;stroke-dasharray:none"
     d="m 367.38281,128.57812 c -23,44 -67,-5 -85,144 0,0 11,26.94922 -7,1 -18,-25.94921 2,-74.05078 2,-100 0,-25.94921 22,-42.1289 40,-50.77734 18,-8.64844 54,5.77734 50,5.77734"
     id="path43" />
  <g
     clip-path="url(#clip2)"
     clip-rule="nonzero"
     id="g47"
     transform="translate(0,-20)">
    <path
       style="fill:#000000;fill-opacity:1;fill-rule:nonzero;stroke:none"
       d="m 271.52734,290.89453 c 15.0625,1.95703 29.4336,2.46484 34.19141,1 0.83984,-0.74219 1.79687,-1.56641 2.85937,-2.47656 13.72266,-11.79297 50.1875,-43.11328 50.1875,-93.96875 0,-21.7461 -19.5664,-39.4375 -43.61718,-39.4375 -24.05469,0 -43.6211,17.6914 -43.6211,39.4375 z m 24.16407,30.68359 c -4.42579,0 -9.34375,-0.23437 -14.81641,-0.6914 -14.03516,-1.17188 -26.63281,-3.46875 -27.16406,-3.56641 l -12.1836,-2.23828 V 195.44922 c 0,-37.64453 33.02735,-68.26953 73.6211,-68.26953 40.59375,0 73.61718,30.625 73.61718,68.26953 0,63.75781 -45.30859,102.67578 -60.19921,115.46875 -1.27344,1.09375 -2.375,2.03906 -3.05469,2.66406 -5.92578,5.44531 -15.17578,7.99609 -29.82031,7.99609"
       id="path45" />
  </g>
  <path
     style="fill:#ffffff;fill-opacity:1;fill-rule:nonzero;stroke:none"
     d="m 253,117.99609 c 32.375,0 58.62109,24.10938 58.62109,53.85547 0,62.83203 -48.84765,98.73438 -58.62109,107.71094 -9.76953,8.97266 -58.61719,0 -58.61719,0 V 171.85156 c 0,-29.74609 26.2461,-53.85547 58.61719,-53.85547"
     id="path49" />
  <path
     style="fill:#ffbbff;fill-opacity:1;fill-rule:nonzero;stroke:none;stroke-width:0.99757905;stroke-dasharray:none"
     d="m 289.38281,128.57812 c -39,22 -56,1 -61,154 0,0 -8,14.94922 -26,-11 -18,-25.94921 -7,-72.05078 -7,-98 0,-25.94921 22,-42.1289 40,-50.77734 18,-8.64844 54,5.77734 54,5.77734"
     id="path51" />
  <path
     style="fill:#000000;fill-opacity:1;fill-rule:nonzero;stroke:none"
     d="m 209.38281,267.29687 c 15.0586,1.95704 29.4336,2.46485 34.1875,1 0.84375,-0.74609 1.79688,-1.5664 2.85938,-2.47656 13.72656,-11.78906 50.1914,-43.11328 50.1914,-93.96875 0,-21.74609 -19.5664,-39.4414 -43.62109,-39.4414 -24.05078,0 -43.61719,17.69531 -43.61719,39.4414 z m 24.16406,30.6836 c -4.42968,0 -9.34765,-0.23438 -14.8164,-0.69141 -14.03516,-1.17187 -26.63281,-3.47265 -27.16406,-3.5664 l -12.1836,-2.23829 V 171.85156 c 0,-37.64453 33.02344,-68.27343 73.61719,-68.27343 40.59375,0 73.62109,30.6289 73.62109,68.27343 0,63.75781 -45.3125,102.67969 -60.20312,115.46875 -1.27344,1.09375 -2.375,2.03906 -3.05469,2.66406 -5.92187,5.44141 -15.17187,7.9961 -29.81641,7.9961"
     id="path53" />
  <path
     style="fill:#ffffff;fill-opacity:1;fill-rule:nonzero;stroke:none"
     d="M 73.617188,121.59375 C 41.246094,121.59375 15,145.70703 15,175.44922 c 0,62.83203 48.847656,98.73437 58.617188,107.71094 9.769531,8.97656 58.621092,0 58.621092,0 V 175.44922 c 0,-29.74219 -26.24609,-53.85547 -58.621092,-53.85547"
     id="path55" />
  <path
     style="fill:#ffbbff;fill-opacity:1;fill-rule:nonzero;stroke:none"
     d="m 81.382812,119.91797 c -63,38.66015 -31,96.10937 14,156.66015 0,0 -23,16.33594 -41,-9.60937 -18,-25.95313 -45,-60.55078 -45,-86.5 0,-25.94922 18,-51.90234 36,-60.55078 18,-8.64844 36,0 36,0"
     id="path57" />
  <path
     style="fill:#000000;fill-opacity:1;fill-rule:nonzero;stroke:none;stroke-width:0.99757905;stroke-dasharray:none"
     d="m 83.046875,271.89453 c 4.757813,1.46484 19.128905,0.95703 34.191405,-1 v -95.44531 c 0,-21.7461 -19.570311,-39.4375 -43.621092,-39.4375 C 49.566406,136.01172 30,153.70312 30,175.44922 c 0,50.85547 36.464844,82.17578 50.191406,93.96875 1.058594,0.91015 2.015625,1.73437 2.855469,2.47656 m 10.027344,29.68359 c -14.648438,0 -23.894531,-2.55078 -29.820313,-7.99609 -0.679687,-0.625 -1.78125,-1.57031 -3.058594,-2.66406 C 45.308594,278.125 0,239.20703 0,175.44922 c 0,-37.64453 33.027344,-68.26953 73.617188,-68.26953 40.593752,0 73.621092,30.625 73.621092,68.26953 v 119.63281 l -12.18359,2.23828 c -0.53125,0.0977 -13.12891,2.39453 -27.16406,3.56641 -5.47266,0.45703 -10.39063,0.6914 -14.816411,0.6914"
     id="path59" />
  <path
     style="fill:#ffffff;fill-opacity:1;fill-rule:nonzero;stroke:none"
     d="m 135.76562,117.99609 c -32.37499,0 -58.621089,24.10938 -58.621089,53.85547 0,62.83203 48.847659,98.73438 58.621089,107.71094 9.76954,8.97266 58.61719,0 58.61719,0 V 171.85156 c 0,-29.74609 -26.24609,-53.85547 -58.61719,-53.85547"
     id="path61" />
  <path
     style="fill:#ffbbff;fill-opacity:1;fill-rule:nonzero;stroke:none;stroke-width:0.99757905;stroke-dasharray:none"
     d="m 152.38281,118.57812 c -36,33.42969 -30,93.44922 15,154 0,0 -18,26.22266 -36,0.27344 -18,-25.95312 -48.999998,-70.32422 -48.999998,-96.27344 0,-25.94921 21.999998,-42.1289 39.999998,-50.77734 18,-8.64844 30,-7.22266 30,-7.22266"
     id="path63" />
  <path
     style="fill:#000000;fill-opacity:1;fill-rule:nonzero;stroke:none"
     d="m 145.19531,268.29687 c 4.76563,1.46875 19.14063,0.96485 34.1875,-0.99218 v -95.45313 c 0,-21.74609 -19.5664,-39.4414 -43.61719,-39.4414 -24.05078,0 -43.621089,17.69531 -43.621089,39.4414 0,50.85547 36.464839,82.17969 50.195309,93.96875 1.0586,0.91016 2.01172,1.73047 2.85547,2.47656 m 10.02344,29.6836 c -14.64453,0 -23.89063,-2.55469 -29.82031,-7.9961 -0.67578,-0.625 -1.77735,-1.57031 -3.05078,-2.66406 -14.89063,-12.78906 -60.203129,-51.71094 -60.203129,-115.46875 0,-37.64453 33.027344,-68.27343 73.621089,-68.27343 40.58985,0 73.61719,30.6289 73.61719,68.27343 v 119.63281 l -12.18359,2.23829 c -0.52735,0.0937 -13.125,2.39453 -27.16406,3.5664 -5.46875,0.45703 -10.39063,0.69141 -14.81641,0.69141"
     id="path65" />
  <path
     style="fill:#ffffff;fill-opacity:1;fill-rule:nonzero;stroke:none"
     d="m 104.38281,285.57812 31.85156,69"
     id="path67" />
  <g
     clip-path="url(#clip3)"
     clip-rule="nonzero"
     id="g71"
     transform="translate(0,-20)">
    <path
       style="fill:none;stroke:#000000;stroke-width:30;stroke-linecap:butt;stroke-linejoin:miter;stroke-miterlimit:10;stroke-opacity:1"
       d="m 1.25e-5,8.75e-4 31.8515625,-69"
       transform="matrix(1,0,0,-1,104.3828,305.579)"
       id="path69" />
  </g>
  <path
     style="fill:#ffffff;fill-opacity:1;fill-rule:nonzero;stroke:none"
     d="m 178.70703,285.57812 31.85156,69"
     id="path73" />
  <g
     clip-path="url(#clip4)"
     clip-rule="nonzero"
     id="g77"
     transform="translate(0,-20)">
    <path
       style="fill:none;stroke:#000000;stroke-width:30;stroke-linecap:butt;stroke-linejoin:miter;stroke-miterlimit:10;stroke-opacity:1"
       d="m 9.3125e-4,8.75e-4 31.85156275,-69"
       transform="matrix(1,0,0,-1,178.7061,305.579)"
       id="path75" />
  </g>
  <path
     style="fill:#ffffff;fill-opacity:1;fill-rule:nonzero;stroke:none"
     d="m 253.03125,285.57812 31.85156,69"
     id="path79" />
  <g
     clip-path="url(#clip5)"
     clip-rule="nonzero"
     id="g83"
     transform="translate(0,-20)">
    <path
       style="fill:none;stroke:#000000;stroke-width:30;stroke-linecap:butt;stroke-linejoin:miter;stroke-miterlimit:10;stroke-opacity:1"
       d="m 9.5e-4,8.75e-4 31.851562,-69"
       transform="matrix(1,0,0,-1,253.0303,305.579)"
       id="path81" />
  </g>
</svg>
