<?xml version="1.0" encoding="UTF-8" standalone="no"?>
<svg
   width="408pt"
   height="408pt"
   viewBox="-50 -90 498 528"
   version="1.1"
   id="svg33"
   sodipodi:docname="queen.svg"
   inkscape:version="1.2.2 (b0a8486541, 2022-12-01)"
   xmlns:inkscape="http://www.inkscape.org/namespaces/inkscape"
   xmlns:sodipodi="http://sodipodi.sourceforge.net/DTD/sodipodi-0.dtd"
   xmlns="http://www.w3.org/2000/svg"
   xmlns:svg="http://www.w3.org/2000/svg">
  <defs
     id="defs37" />
  <sodipodi:namedview
     id="namedview35"
     pagecolor="#505050"
     bordercolor="#ffffff"
     borderopacity="1"
     inkscape:showpageshadow="0"
     inkscape:pageopacity="0"
     inkscape:pagecheckerboard="1"
     inkscape:deskcolor="#505050"
     inkscape:document-units="pt"
     showgrid="false"
     inkscape:zoom="1.5386029"
     inkscape:cx="230.40382"
     inkscape:cy="271.67503"
     inkscape:window-width="1920"
     inkscape:window-height="1011"
     inkscape:window-x="0"
     inkscape:window-y="32"
     inkscape:window-maximized="1"
     inkscape:current-layer="svg33" />
  <path
     style="fill:#ffffff;fill-opacity:1;fill-rule:nonzero;stroke:none"
     d="M 319.32422,373 H 88.675781 c 4.5,-5.57813 17.746099,-23.47266 17.746099,-49.5 0,-6.97266 -0.95313,-28.67969 -17.746099,-49.5 H 319.32422 c -4.5,5.57812 -17.74219,23.47266 -17.74219,49.5 0,6.97266 0.94922,28.67969 17.74219,49.5"
     id="path2" />
  <path
     style="fill:#ffbbff;fill-opacity:1;fill-rule:nonzero;stroke:none"
     d="m 140,373 c 3.5625,-10.28125 11.43359,-25.77344 12,-45 0.69922,-23.79688 -8.10156,-41.72266 -12,-53 -10.67969,0 -27.25391,-1 -37.93359,-1 l 15.5625,54 -24.714848,45 z m 0,0"
     id="path4" />
  <path
     style="fill:#000000;fill-opacity:1;fill-rule:nonzero;stroke:none"
     d="m 113.50391,358 h 180.98046 c -5.52343,-14.01563 -6.63281,-26.63672 -6.63281,-34.5 0,-13.32031 2.82813,-24.91406 6.64453,-34.5 H 113.51563 c 5.52343,14.01562 6.63281,26.63672 6.63281,34.5 0,13.32031 -2.82813,24.91406 -6.64453,34.5 m 205.8164,30 H 88.679688 c -5.398438,0 -10.292969,-3.45313 -12.511719,-8.82422 -2.222657,-5.375 -1.355469,-11.66797 2.210937,-16.09375 5.34375,-6.62891 14.3125,-20.58594 14.3125,-39.58203 0,-8.15234 -1.859375,-24.14063 -14.316406,-39.58594 -3.5625,-4.42187 -4.429688,-10.71875 -2.207031,-16.08984 C 78.386719,262.45312 83.28125,259 88.679688,259 H 319.32031 c 5.39844,0 10.29297,3.45312 12.51172,8.82422 2.22266,5.375 1.35938,11.66797 -2.21094,16.09375 -5.34375,6.6289 -14.3125,20.58594 -14.3125,39.58203 0,8.15234 1.85938,24.14062 14.3125,39.58594 3.57032,4.42187 4.4336,10.71875 2.21094,16.08984 C 329.61328,384.54687 324.71875,388 319.32031,388"
     id="path6" />
  <path
     style="fill:#ffffff;fill-opacity:1;fill-rule:nonzero;stroke:none"
     d="M 91.101562,234.30078 55.730469,107.33203 C 58.96875,109.28125 106.16406,176.375 129.86328,161.5 148.71484,149.66797 144.79297,77.320312 146.33984,49 c 8.29688,26.242188 36.08594,93.75 57.66016,93.75 21.57422,0 49.36328,-67.507812 57.66016,-93.75 0.52343,3.230469 -7.82813,97.15625 24.71093,112.5 18.58594,8.76562 59.88282,-51.51172 65.90235,-54.16797 -6.16797,35.20703 -28.8086,83.80469 -34.97266,126.79688 C 314.01953,257.01172 294.65234,274 271.79297,274 H 136.58203 c -22.78906,0 -42.140624,-16.89063 -45.480468,-39.69922"
     id="path8" />
  <path
     style="fill:#ffbbff;fill-opacity:1;fill-rule:nonzero;stroke:none"
     d="M 86.828125,139 C 153,172 93,259 230,259 l -100.02734,15 c -11.19141,-10.46875 -34.06641,-34.77344 -43.144535,-72 -6.589844,-27.01563 -3.199219,-49.72266 0,-63"
     id="path10" />
  <path
     style="fill:#000000;fill-opacity:1;fill-rule:nonzero;stroke:none"
     d="m 203.70312,127.77344 z m 0.59375,0 z m -81.39453,20.80859 z m -38.078121,11.67969 19.410161,69.67187 c 0.18359,0.65625 0.32421,1.32422 0.42187,2 C 106.91797,247.36328 120.64453,259 136.58203,259 h 135.21484 c 15.98438,0 29.71875,-11.69141 31.94141,-27.19141 3.39453,-23.65625 11.14844,-47.88672 18.90234,-71.42968 -14.89843,13.73828 -28.76953,20.99609 -41.70703,14.89062 C 264.29297,167.42578 253.72656,146.66797 249.51562,113.5625 233.48828,143.70703 219.01953,157.75 204,157.75 c -15.07813,0 -29.59375,-14.14844 -45.69141,-44.51953 -0.0312,-0.0625 -0.0664,-0.12891 -0.0977,-0.19141 -2.06641,30.17578 -7.30469,52.55469 -21.50782,61.46875 -4.60546,2.88672 -9.43749,4.16016 -14.38281,4.16016 -12.39062,0 -25.488279,-7.98438 -37.496091,-18.40625 M 271.79687,289 H 136.58203 c -14.125,0 -27.83203,-5.17578 -38.601561,-14.57813 -10.75,-9.3789 -17.917969,-22.36328 -20.265625,-36.66015 L 42.597656,111.70312 c -1.628906,-5.83984 0.144532,-12.17187 4.484375,-16.01953 4.335938,-3.84765 10.375,-4.43359 15.265625,-1.49218 2.628906,1.57812 4.121094,3.40625 9.070313,9.45703 6.425781,7.85547 18.390625,22.48047 30.515621,33.10156 13.46875,11.79687 19.84375,12.3125 21.01563,11.78516 0.48828,-0.50782 4.57422,-5.35938 6.97656,-27.06641 1.77734,-16.09375 2.00391,-35.35547 2.18359,-50.835938 0.10547,-8.8125 0.19141,-16.425781 0.52735,-22.527343 0.38672,-7.144531 5.34375,-12.992188 11.83594,-13.964844 6.48437,-0.972656 12.70312,3.195313 14.84375,9.960937 4.09375,12.953126 12.35156,34.003907 21.5664,51.824218 12.20703,23.60938 20.51953,30.75781 23.11719,31.75391 2.59766,-0.9961 10.91016,-8.14453 23.11719,-31.75391 9.21484,-17.820311 17.47265,-38.871092 21.5664,-51.824218 2.04297,-6.460937 7.82813,-10.585937 14.0625,-10.054687 6.23438,0.539063 11.35157,5.621094 12.4375,12.351563 0.32422,2.007812 0.26563,3.449218 0.0781,8.222656 -2.90235,73.414066 10.29687,89.257816 15.6914,92.632816 1.53516,-0.42969 6.34375,-2.4375 16.08594,-11.76563 8.3086,-7.95312 16.66406,-17.78906 23.37891,-25.69531 8.89062,-10.46875 12.21484,-14.38281 16.71094,-16.36719 4.66015,-2.05859 9.97656,-1.16797 13.85937,2.32031 3.88281,3.48438 5.71094,9.01172 4.76563,14.40625 -2.98829,17.06641 -9.29688,36.19141 -15.97657,56.44141 -7.73437,23.45312 -15.73437,47.70703 -18.91406,69.85547 -2.11719,14.77344 -9.35547,28.23047 -20.38281,37.89844 C 299.69531,283.79687 285.96094,289 271.79687,289"
     id="path12" />
  <path
     style="fill:#ffbbff;fill-opacity:1;fill-rule:nonzero;stroke:none"
     d="m 168,22 c 0,14.910156 -12.08984,27 -27,27 -14.91016,0 -27,-12.089844 -27,-27 0,-14.910156 12.08984,-27 27,-27 14.91016,0 27,12.089844 27,27"
     id="path14" />
  <path
     style="fill:none;stroke:#000000;stroke-width:30;stroke-linecap:butt;stroke-linejoin:round;stroke-miterlimit:10;stroke-opacity:1"
     d="m 168,22 c 0,14.910156 -12.08984,27 -27,27 -14.91016,0 -27,-12.089844 -27,-27 0,-14.910156 12.08984,-27 27,-27 14.91016,0 27,12.089844 27,27 z m 0,0"
     id="path16" />
  <path
     style="fill:#ffbbff;fill-opacity:1;fill-rule:nonzero;stroke:none"
     d="m 294,22 c 0,14.910156 -12.08984,27 -27,27 -14.91016,0 -27,-12.089844 -27,-27 0,-14.910156 12.08984,-27 27,-27 14.91016,0 27,12.089844 27,27"
     id="path18" />
  <path
     style="fill:none;stroke:#000000;stroke-width:30;stroke-linecap:butt;stroke-linejoin:round;stroke-miterlimit:10;stroke-opacity:1"
     d="m 294,22 c 0,14.910156 -12.08984,27 -27,27 -14.91016,0 -27,-12.089844 -27,-27 0,-14.910156 12.08984,-27 27,-27 14.91016,0 27,12.089844 27,27 z m 0,0"
     id="path20" />
  <path
     style="fill:#f0f0f0;fill-opacity:1;fill-rule:nonzero;stroke:none"
     d="m 393,76 c 0,14.91016 -12.08984,27 -27,27 -14.91016,0 -27,-12.08984 -27,-27 0,-14.910156 12.08984,-27 27,-27 14.91016,0 27,12.089844 27,27"
     id="path22" />
  <path
     style="fill:#ffbbff;stroke:#000000;stroke-width:30;stroke-linecap:butt;stroke-linejoin:round;stroke-miterlimit:10;stroke-opacity:1;fill-opacity:1"
     d="m 393,76 c 0,14.910156 -12.08984,27 -27,27 -14.91016,0 -27,-12.089844 -27,-27 0,-14.910156 12.08984,-27 27,-27 14.91016,0 27,12.089844 27,27 z m 0,0"
     id="path24" />
  <path
     style="fill:#f0f0f0;fill-opacity:1;fill-rule:nonzero;stroke:none"
     d="M 69,76 C 69,90.91016 56.910156,103 42,103 27.089844,103 15,90.91016 15,76 15,61.089844 27.089844,49 42,49 56.910156,49 69,61.089844 69,76"
     id="path26" />
  <path
     style="fill:#ffbbff;stroke:#000000;stroke-width:30;stroke-linecap:butt;stroke-linejoin:round;stroke-miterlimit:10;stroke-opacity:1;fill-opacity:1"
     d="M 69,76 C 69,90.910156 56.910156,103 42,103 27.089844,103 15,90.910156 15,76 15,61.089844 27.089844,49 42,49 56.910156,49 69,61.089844 69,76 Z m 0,0"
     id="path28" />
  <path
     style="fill:none;stroke:#000000;stroke-width:30;stroke-linecap:butt;stroke-linejoin:round;stroke-miterlimit:10;stroke-opacity:1"
     d="M 105.15234,328 H 302.84766"
     id="path30" />
</svg>
