<?xml version="1.0" encoding="UTF-8" standalone="no"?>
<svg
   width="100"
   height="100"
   viewBox="-50 -92.5 398.041 510.02"
   version="1.1"
   id="svg22"
   sodipodi:docname="sking.svg"
   inkscape:version="1.2.2 (b0a8486541, 2022-12-01)"
   xmlns:inkscape="http://www.inkscape.org/namespaces/inkscape"
   xmlns:sodipodi="http://sodipodi.sourceforge.net/DTD/sodipodi-0.dtd"
   xmlns="http://www.w3.org/2000/svg"
   xmlns:svg="http://www.w3.org/2000/svg">
  <sodipodi:namedview
     id="namedview24"
     pagecolor="#505050"
     bordercolor="#ffffff"
     borderopacity="1"
     inkscape:showpageshadow="0"
     inkscape:pageopacity="0"
     inkscape:pagecheckerboard="1"
     inkscape:deskcolor="#505050"
     showgrid="false"
     inkscape:zoom="5.9524982"
     inkscape:cx="27.299462"
     inkscape:cy="64.678726"
     inkscape:window-width="1904"
     inkscape:window-height="995"
     inkscape:window-x="8"
     inkscape:window-y="40"
     inkscape:window-maximized="0"
     inkscape:current-layer="layer1" />
  <defs
     id="defs5">
    <clipPath
       id="clip1">
      <path
         d="M 0 0 L 308.039062 0 L 308.039062 395.019531 L 0 395.019531 Z M 0 0 "
         id="path2" />
    </clipPath>
    <clipPath
       id="clip1-3">
      <path
         d="M 0,0 H 308.03906 V 395.01953 H 0 Z m 0,0"
         id="path2-6" />
    </clipPath>
  </defs>
  <g
     inkscape:groupmode="layer"
     id="layer1"
     inkscape:label="old"
     style="display:inline" />
  <g
     id="g2632"
     transform="matrix(0.89298772,0,0,0.89207394,17.687981,17.203454)"
     style="stroke-width:1.12041">
    <path
       style="fill:#4c4c4c;fill-opacity:1;stroke:none;stroke-width:36.9315;stroke-linecap:round;stroke-linejoin:round;stroke-opacity:1"
       d="m 358.328,44.808089 -100.08039,-85.902 H 125.92955 L 25.697623,20.045833 -38.366142,123.44515 l 9.906628,116.52475 10.611676,92.80287 42.111295,-35.68563 15.361344,-73.59803 42.558287,-15.38537 20.964462,35.08152 31.06491,-22.86387 33.27715,26.96419 -11.74405,28.68621 110.82034,91.34476 -41.53205,-196.87571 74.72583,15.82438 -38.5115,-93.904692 54.99275,-41.755903 z"
       id="path1956" />
    <path
       style="fill:#7f7f7f;fill-opacity:1;stroke:none;stroke-width:36.9315;stroke-linecap:round;stroke-linejoin:round;stroke-opacity:1"
       d="M 91.782751,-27.745392 -16.596591,84.517481 -31.731843,201.47978 -4.1668733,333.87622 38.036578,254.50077 36.942804,182.23968 53.676295,81.719461 118.55804,30.957007 222.84777,20.728918 294.22859,61.2886 358.328,44.808089 293.30621,-19.823078 166.30847,-47.722658 Z"
       id="path2526" />
    <path
       style="fill:#7f7f7f;fill-opacity:1;stroke:none;stroke-width:36.9315;stroke-linecap:round;stroke-linejoin:round;stroke-opacity:1"
       d="M 152.58097,81.719461 C 122.96703,114.60005 113.54078,148.88186 120.12128,209.62528 l -16.97373,33.55998 -27.563075,-72.57425 16.285392,-50.84464 z"
       id="path2425"
       sodipodi:nodetypes="cccccc" />
    <path
       style="fill:#7f7f7f;fill-opacity:1;stroke:none;stroke-width:36.9315;stroke-linecap:round;stroke-linejoin:round;stroke-opacity:1"
       d="m 201.45362,31.304985 c -8.27634,4.531171 -12.56038,9.789909 -14.32826,14.376748 l -95.255493,74.084637 -9.65881,88.32726 -42.586256,15.39548 -5.363993,-82.49886 40.04852,-78.434867 44.248712,-31.598376 z"
       id="path2391"
       sodipodi:nodetypes="ccccccccc" />
    <path
       id="path495"
       style="fill:none;stroke:#000000;stroke-width:36.9314;stroke-linecap:round;stroke-linejoin:round"
       d="M 103.14755,243.18526 C 85.999602,223.88129 75.584476,198.46244 75.584473,170.61101 75.584467,110.23429 124.52947,61.289293 184.90619,61.289291 c 60.37672,0 109.32172,48.944999 109.32172,109.321719"
       sodipodi:nodetypes="cssc" />
    <path
       id="path495-2"
       style="fill:none;stroke:#000000;stroke-width:36.9315;stroke-linecap:round;stroke-linejoin:round"
       d="M 82.211055,208.09363 39.6248,223.48911 C 14.830946,155.36856 40.697411,79.16841 101.83686,40.218286 162.97631,1.2681577 242.96874,10.028751 294.22859,61.2886 l -32.98041,31.071928"
       sodipodi:nodetypes="ccscc" />
    <path
       style="fill:none;stroke:#000000;stroke-width:36.9315;stroke-linecap:round;stroke-linejoin:round;stroke-opacity:1"
       d="M 368.94466,51.67697 C 342.58287,45.5079 317.06421,44.76483 294.22859,61.2886"
       id="path1529"
       sodipodi:nodetypes="cc" />
    <path
       id="path1735"
       style="fill:none;stroke:#000000;stroke-width:36.9315;stroke-linecap:round;stroke-linejoin:round;stroke-opacity:1"
       d="m 39.624801,223.48911 c 2.66553,61.59419 -28.04779,101.7738 -59.713707,122.79155 0,0 12.7091695,-64.74619 1.053366,-95.50969 C -39.131064,197.73227 -39.559164,138.26163 -16.596589,84.517483 15.235897,10.013221 85.581104,-40.84628 166.30847,-47.722658 c 80.72736,-6.876377 158.66115,31.352679 202.63619,99.399633"
       sodipodi:nodetypes="ccsssc" />
    <path
       style="fill:none;stroke:#000000;stroke-width:36.9315;stroke-linecap:round;stroke-linejoin:round;stroke-opacity:1"
       d="M 292.54595,151.50809 313.9112,254.44994"
       id="path1832" />
    <path
       style="fill:none;stroke:#000000;stroke-width:36.9315;stroke-linecap:round;stroke-linejoin:round;stroke-opacity:1"
       d="M 299.75968,186.26522 225.03385,170.44084 266.5659,367.31655 155.74556,275.97179 c 0,0 24.40843,-33.77209 -3.87048,-51.00744 -28.27891,-17.23536 -48.72753,18.22091 -48.72753,18.22091"
       id="path1834"
       sodipodi:nodetypes="cccczc" />
  </g>
</svg>
