<?xml version="1.0" encoding="UTF-8" standalone="no"?>
<svg
   width="100"
   height="100"
   viewBox="-50 -92.5 398.041 510.02"
   version="1.1"
   id="svg22"
   sodipodi:docname="sking.svg"
   inkscape:version="1.2.2 (b0a8486541, 2022-12-01)"
   xmlns:inkscape="http://www.inkscape.org/namespaces/inkscape"
   xmlns:sodipodi="http://sodipodi.sourceforge.net/DTD/sodipodi-0.dtd"
   xmlns="http://www.w3.org/2000/svg"
   xmlns:svg="http://www.w3.org/2000/svg">
  <sodipodi:namedview
     id="namedview24"
     pagecolor="#505050"
     bordercolor="#ffffff"
     borderopacity="1"
     inkscape:showpageshadow="0"
     inkscape:pageopacity="0"
     inkscape:pagecheckerboard="1"
     inkscape:deskcolor="#505050"
     showgrid="false"
     inkscape:zoom="11.989111"
     inkscape:cx="43.622918"
     inkscape:cy="43.4561"
     inkscape:window-width="1904"
     inkscape:window-height="995"
     inkscape:window-x="8"
     inkscape:window-y="40"
     inkscape:window-maximized="0"
     inkscape:current-layer="svg22" />
  <defs
     id="defs5">
    <clipPath
       id="clip1">
      <path
         d="M 0 0 L 308.039062 0 L 308.039062 395.019531 L 0 395.019531 Z M 0 0 "
         id="path2" />
    </clipPath>
    <clipPath
       id="clip1-3">
      <path
         d="M 0,0 H 308.03906 V 395.01953 H 0 Z m 0,0"
         id="path2-6" />
    </clipPath>
  </defs>
  <g
     inkscape:groupmode="layer"
     id="layer1"
     inkscape:label="old"
     style="display:inline" />
  <path
     style="fill:#4c4c4c;fill-opacity:1;stroke:none;stroke-width:32.9625;stroke-linecap:round;stroke-linejoin:round;stroke-opacity:1"
     d="M 337.67048,57.175582 248.29993,-19.455353 H 130.14152 l -89.505877,54.541172 -57.208156,92.239841 8.8464975,103.94869 9.4760963,82.78702 37.6048692,-31.83422 13.717492,-65.65489 38.004027,-13.72488 18.721011,31.29531 27.74058,-20.39627 29.71609,24.05406 -10.4873,25.59022 98.96121,81.48628 -37.08761,-175.62769 66.72924,14.11651 -34.39029,-83.769926 49.10785,-37.249353 z"
     id="path1956" />
  <path
     style="fill:#b75fbf;fill-opacity:1;stroke:none;stroke-width:32.9625;stroke-linecap:round;stroke-linejoin:round;stroke-opacity:1"
     d="M 99.648851,-7.5474872 2.867429,92.599296 -10.648165,196.93832 13.967014,315.04573 51.654178,244.23696 50.677451,179.77472 65.620253,90.103256 123.55885,44.819393 216.6883,35.695182 280.4305,71.877417 337.67048,57.175582 279.60682,-0.48019729 166.1994,-25.368686 Z"
     id="path2526" />
  <path
     style="fill:#b75fbf;fill-opacity:1;stroke:none;stroke-width:32.9625;stroke-linecap:round;stroke-linejoin:round;stroke-opacity:1"
     d="M 153.94091,90.103256 C 127.49603,119.43517 119.0785,150.01708 124.95481,204.2047 l -15.15733,29.93799 -24.613491,-64.7416 14.542655,-45.35718 z"
     id="path2425"
     sodipodi:nodetypes="cccccc" />
  <path
     style="fill:#b75fbf;fill-opacity:1;stroke:none;stroke-width:32.9625;stroke-linecap:round;stroke-linejoin:round;stroke-opacity:1"
     d="m 197.58359,45.129815 c -7.39067,4.04214 -11.21627,8.733323 -12.79496,12.825123 l -85.061986,66.088972 -8.625199,78.79445 -38.029003,13.7339 -4.78998,-73.59508 35.762836,-69.969699 39.513552,-28.188088 z"
     id="path2391"
     sodipodi:nodetypes="ccccccccc" />
  <path
     id="path495"
     style="fill:none;stroke:#000000;stroke-width:32.9624;stroke-linecap:round;stroke-linejoin:round"
     d="m 109.79748,234.14269 c -15.31291,-17.22057 -24.61349,-39.89607 -24.613493,-64.7416 -5e-6,-53.8605 43.707283,-97.523055 97.622953,-97.523057 53.91567,0 97.62295,43.662557 97.62295,97.523057"
     sodipodi:nodetypes="cssc" />
  <path
     id="path495-2"
     style="fill:none;stroke:#000000;stroke-width:32.9625;stroke-linecap:round;stroke-linejoin:round"
     d="m 91.101444,202.83836 -38.029003,13.7339 C 30.931834,155.8037 54.030269,87.827529 108.62705,53.081139 163.22382,18.334744 234.65608,26.149841 280.4305,71.877417 l -29.4511,27.718457"
     sodipodi:nodetypes="ccscc" />
  <path
     style="fill:none;stroke:#000000;stroke-width:32.9625;stroke-linecap:round;stroke-linejoin:round;stroke-opacity:1"
     d="m 347.15103,63.303132 c -23.54075,-5.503266 -46.3286,-6.16614 -66.72053,8.574285"
     id="path1529"
     sodipodi:nodetypes="cc" />
  <path
     id="path1735"
     style="fill:none;stroke:#000000;stroke-width:32.9625;stroke-linecap:round;stroke-linejoin:round;stroke-opacity:1"
     d="m 53.072442,216.57226 c 2.380285,54.94658 -25.046332,90.78976 -53.32360737,109.53915 0,0 11.34913237,-57.75839 0.94064291,-85.20171 C -17.255579,193.59526 -17.637867,140.54305 2.8674308,92.599298 31.29345,26.135988 94.110856,-19.234448 166.1994,-25.368686 238.28794,-31.502922 307.88186,2.6002223 347.15103,63.303137"
     sodipodi:nodetypes="ccsssc" />
  <path
     style="fill:none;stroke:#000000;stroke-width:32.9625;stroke-linecap:round;stroke-linejoin:round;stroke-opacity:1"
     d="m 278.92792,152.35987 19.07891,91.83174"
     id="path1832" />
  <path
     style="fill:none;stroke:#000000;stroke-width:32.9625;stroke-linecap:round;stroke-linejoin:round;stroke-opacity:1"
     d="m 285.36969,183.3658 -66.72924,-14.11651 37.08761,175.62769 -98.96121,-81.48628 c 0,0 21.79643,-30.12721 -3.45629,-45.50241 -25.25272,-15.37522 -43.51308,16.2544 -43.51308,16.2544"
     id="path1834"
     sodipodi:nodetypes="cccczc" />
</svg>
