<?xml version="1.0" encoding="UTF-8" standalone="no"?>
<svg
   width="100"
   height="100"
   viewBox="-50 -90 498 528"
   version="1.1"
   id="svg33"
   sodipodi:docname="warlord.svg"
   inkscape:version="1.2.2 (b0a8486541, 2022-12-01)"
   xmlns:inkscape="http://www.inkscape.org/namespaces/inkscape"
   xmlns:sodipodi="http://sodipodi.sourceforge.net/DTD/sodipodi-0.dtd"
   xmlns="http://www.w3.org/2000/svg"
   xmlns:svg="http://www.w3.org/2000/svg">
  <defs
     id="defs37" />
  <sodipodi:namedview
     id="namedview35"
     pagecolor="#505050"
     bordercolor="#ffffff"
     borderopacity="1"
     inkscape:showpageshadow="0"
     inkscape:pageopacity="0"
     inkscape:pagecheckerboard="1"
     inkscape:deskcolor="#505050"
     showgrid="false"
     inkscape:zoom="14.16704"
     inkscape:cx="29.928623"
     inkscape:cy="49.551635"
     inkscape:window-width="1920"
     inkscape:window-height="1011"
     inkscape:window-x="0"
     inkscape:window-y="32"
     inkscape:window-maximized="1"
     inkscape:current-layer="svg33" />
  <g
     inkscape:groupmode="layer"
     id="layer1"
     inkscape:label="old"
     style="display:inline" />
  <path
     style="fill:#4c4c4c;fill-opacity:1;stroke:none;stroke-width:34.1246;stroke-linecap:round;stroke-linejoin:round;stroke-opacity:1"
     d="M 319.6968,6.599746 203.99884,32.107368 122.0645,82.707494 70.198332,154.14585 54.16124,217.35252 49.119151,350.6302 l 53.218639,-43.47744 1.33702,-67.29949 37.47741,-81.85946 74.17017,-73.446078 84.55548,-39.627801 z"
     id="path1856" />
  <path
     style="fill:#b75fbf;fill-opacity:1;stroke:none;stroke-width:34.1246;stroke-linecap:round;stroke-linejoin:round;stroke-opacity:1"
     d="M 162.08054,68.539189 C 129.64121,99.042755 84.220588,195.44703 83.856758,252.26642 l -5.914534,60.813 -14.010443,-18.69167 -5.896305,-71.76774 7.395566,-58.56066 z"
     id="path1978"
     sodipodi:nodetypes="ccccccc" />
  <path
     style="fill:none;stroke:#000000;stroke-width:34.1246;stroke-linecap:round;stroke-linejoin:round;stroke-opacity:1"
     d="M 363.93667,-9.7457921 44.063437,377.74579"
     id="path1656" />
  <path
     id="path553-6"
     style="fill:none;stroke:#000000;stroke-width:34.1246;stroke-linecap:round;stroke-linejoin:round;stroke-opacity:1"
     d="m 126.55062,184.58363 c -12.87442,27.8758 -22.87501,47.41792 -34.234198,97.59654 -11.359191,50.17862 -48.252986,95.56562 -48.252986,95.56562 0,0 7.791417,-32.67506 10.608225,-78.57746 2.816807,-45.9024 -5.488204,-73.43373 3.720724,-111.94049 C 62.978406,145.92261 136.68336,52.082526 179.83785,40.109882 215.86245,23.821157 244.4134,26.826723 288.88848,15.440152 333.36357,4.0535789 363.93667,-9.7457921 363.93667,-9.7457921 c 0,0 -37.57439,44.8230951 -84.63879,65.4182831 -47.06439,20.595189 -64.34706,34.10377 -89.26091,52.004339 -24.91385,17.90058 -36.89624,34.18385 -36.89624,34.18385 0,0 -13.71568,14.84714 -26.59011,42.72295 z"
     sodipodi:nodetypes="sscsccscsscs" />
</svg>
